<svg width="912" height="890" viewBox="0 0 912 890" fill="none" xmlns="http://www.w3.org/2000/svg">
<g filter="url(#filter0_d)">
<path d="M522.619 106.266C530.913 101.425 539.144 96.436 547.523 91.7431C575.53 75.911 605.958 64.8255 637.576 58.935C662.69 54.2843 687.931 51.2192 713.552 53.0583C778.259 57.7089 837.014 78.4254 888.298 118.886C890.936 121 893.574 123.114 896.043 125.333C907.862 136.199 910.816 152.032 901.931 165.498C892.57 180.193 882.241 194.246 871.013 207.565C839.791 243.799 799.916 271.522 755.107 288.148C752.007 289.533 748.985 291.086 746.053 292.799C747.015 295.88 748.302 298.849 749.894 301.656C772.096 331.906 784.97 366.384 794.214 402.194C801.6 430.627 802.655 459.841 801.727 489.14C800.44 531.736 789.064 571.752 771.167 610.057C748.691 658.149 716.486 699.116 678.033 735.328C632.447 778.304 580.383 811.429 523.105 836.416C497.732 847.699 471.482 856.89 444.617 863.897C425.264 868.822 405.32 871.423 385.672 875.291C353.171 881.633 320.248 881.76 287.452 880.618C273.48 880.132 259.615 876.834 245.622 875.735C232.645 874.444 219.806 872.01 207.254 868.463C197.567 865.969 188.007 862.967 178.552 859.69C159.727 853.158 154.704 835.845 159.938 819.8C163.462 808.998 168.126 798.556 172.411 788.092C176.378 778.325 176.632 778.156 167.725 773.062C142.988 758.835 120.171 741.494 99.8322 721.461C79.0777 700.904 61.1755 677.647 46.6065 652.314C32.9365 628.435 22.2546 602.961 14.802 576.466C10.9821 563.043 10.37 548.711 7.16214 535.055C2.64577 515.755 4.31302 496.285 4.24971 476.879C4.49305 457.088 7.40366 437.42 12.9026 418.408C17.4296 401.172 22.9041 384.199 29.3008 367.568C43.4831 331.632 64.672 300.071 90.8839 271.744C125.177 234.632 167.659 206.067 214.936 188.328C239.084 179.338 264.201 173.215 289.773 170.085C309.886 167.443 329.872 167.358 349.879 167.422C370.73 167.422 391.138 171.332 411.42 175.877C421.36 178.097 422.985 177.484 426.636 168.162L480.875 29.8474C482.352 26.1057 484.251 22.5332 485.644 18.7704C490.899 4.5648 508.712 -1.98839 519.285 0.527186C536.696 4.64934 544.294 15.3247 545.518 30.5872C545.961 35.9143 543.407 41.7065 541.402 46.9702C535.071 63.5645 528.444 80.0108 522.071 96.5628C521.232 99.2593 520.597 102.015 520.171 104.807L522.619 106.266ZM231.377 809.569C235.619 811.158 239.971 812.436 244.398 813.395C260.311 815.509 276.266 817.243 292.2 819.124C310.667 821.238 328.901 819.124 347.325 817.708C369.63 815.829 391.779 812.411 413.614 807.476C440.075 801.659 465.951 793.437 490.92 782.912C532.221 765.954 570.972 743.338 606.067 715.711C641.591 688.043 672.182 654.55 696.542 616.652C722.093 577.037 737.103 531.533 740.144 484.468C741.199 468.233 739.152 451.618 736.915 435.404C734.03 416.165 728.785 397.357 721.298 379.406C697.555 320.428 655.346 280.284 596.781 257.01C580.889 250.668 564.259 247.096 547.544 243.438C532.539 240.162 517.512 240.606 502.57 240.479C489.696 240.352 476.548 240.077 463.738 244.242C452.679 247.835 440.713 248.681 429.738 252.465C386.284 267.432 349.309 292.249 320.776 328.566C289.456 368.414 271.222 413.335 271.011 464.724C271.011 472.799 271.011 480.875 271.011 488.95C270.887 494.31 271.219 499.67 272.003 504.973C276.899 530.023 283.843 554.334 295.893 577.143C297.888 580.93 299.072 585.092 299.367 589.363C299.663 593.635 299.064 597.921 297.61 601.947C296.156 605.973 293.877 609.65 290.921 612.743C287.966 615.836 284.397 618.277 280.445 619.908C266.03 625.34 247.522 620.288 240.156 605.11C230.448 585.197 221.162 565.072 216.941 543.151C213.586 525.753 209.301 508.356 207.93 490.768C205.858 460.239 208.868 429.578 216.836 400.038C233.48 334.768 272.28 277.332 326.579 237.583C329.462 235.134 332.21 232.53 334.81 229.783C329.829 229.148 327.212 228.282 324.764 228.578C306.509 230.692 288.042 231.875 270.146 235.744C246.906 240.912 224.564 249.518 203.856 261.28C150.23 291.298 110.996 334.21 87.1484 391.16C79.8315 408.767 74.3847 427.097 70.8978 445.847C67.3793 463.233 65.8429 480.962 66.3182 498.695C67.1709 521.12 70.8294 543.349 77.2081 564.861C88.2288 602.147 107.356 636.525 133.216 665.528C159.077 694.53 191.028 717.436 226.776 732.601C231.503 734.427 235.753 737.308 239.202 741.026C242.65 744.744 245.207 749.201 246.678 754.057C249.674 763.464 246.804 771.878 243.385 780.334C239.565 789.593 235.767 798.809 231.356 809.569H231.377ZM535.599 178.921C537.989 179.731 540.428 180.388 542.901 180.887C568.481 183.619 593.601 189.659 617.632 198.856C639.392 206.776 659.98 217.614 678.835 231.072C683.382 234.509 688.195 237.577 693.228 240.246C695.807 241.51 698.732 241.882 701.544 241.303C718.417 237.241 734.762 231.233 750.253 223.398C779.472 208.948 805.451 188.695 826.609 163.87C832.94 156.556 832.392 154.802 824.499 149.961C794.987 131.897 761.819 120.666 727.418 117.089C700.151 114.151 672.419 114.468 645.406 120.556C624.455 125.017 604.187 132.239 585.131 142.033C569.563 149.846 554.994 159.513 541.74 170.825C539.429 173.313 537.372 176.025 535.599 178.921Z" fill="#F17E6A"/>
</g>
<defs>
<filter id="filter0_d" x="0" y="0" width="911.102" height="889.171" filterUnits="userSpaceOnUse" color-interpolation-filters="sRGB">
<feFlood flood-opacity="0" result="BackgroundImageFix"/>
<feColorMatrix in="SourceAlpha" type="matrix" values="0 0 0 0 0 0 0 0 0 0 0 0 0 0 0 0 0 0 127 0"/>
<feOffset dy="4"/>
<feGaussianBlur stdDeviation="2"/>
<feColorMatrix type="matrix" values="0 0 0 0 0 0 0 0 0 0 0 0 0 0 0 0 0 0 0.25 0"/>
<feBlend mode="normal" in2="BackgroundImageFix" result="effect1_dropShadow"/>
<feBlend mode="normal" in="SourceGraphic" in2="effect1_dropShadow" result="shape"/>
</filter>
</defs>
</svg>
