<svg width="904" height="882" viewBox="0 0 904 882" fill="none" xmlns="http://www.w3.org/2000/svg">
<path d="M518.619 106.266C526.913 101.425 535.144 96.436 543.523 91.7431C571.53 75.911 601.958 64.8255 633.576 58.935C658.69 54.2843 683.931 51.2192 709.552 53.0583C774.259 57.7089 833.014 78.4254 884.298 118.886C886.936 121 889.574 123.114 892.043 125.333C903.862 136.199 906.816 152.032 897.931 165.498C888.57 180.193 878.241 194.246 867.013 207.565C835.791 243.799 795.916 271.522 751.107 288.148C748.007 289.533 744.985 291.086 742.053 292.799C743.015 295.88 744.302 298.849 745.894 301.656C768.096 331.906 780.97 366.384 790.214 402.194C797.6 430.627 798.655 459.841 797.727 489.14C796.44 531.736 785.064 571.752 767.167 610.057C744.691 658.149 712.486 699.116 674.033 735.328C628.447 778.304 576.383 811.429 519.105 836.416C493.732 847.699 467.482 856.89 440.617 863.897C421.264 868.822 401.32 871.423 381.672 875.291C349.171 881.633 316.248 881.76 283.452 880.618C269.48 880.132 255.615 876.834 241.622 875.735C228.645 874.444 215.806 872.01 203.254 868.463C193.567 865.969 184.007 862.967 174.552 859.69C155.727 853.158 150.704 835.845 155.938 819.801C159.462 808.998 164.126 798.556 168.411 788.092C172.378 778.325 172.632 778.156 163.725 773.062C138.988 758.835 116.171 741.494 95.8322 721.461C75.0777 700.904 57.1755 677.647 42.6065 652.314C28.9365 628.435 18.2546 602.961 10.802 576.466C6.98206 563.043 6.37003 548.711 3.16214 535.055C-1.35423 515.755 0.313021 496.285 0.249708 476.879C0.493054 457.088 3.40366 437.42 8.90258 418.408C13.4296 401.172 18.9041 384.199 25.3008 367.568C39.4831 331.631 60.672 300.071 86.8838 271.744C121.177 234.632 163.659 206.067 210.936 188.328C235.084 179.338 260.201 173.215 285.773 170.085C305.886 167.443 325.872 167.358 345.879 167.422C366.73 167.422 387.138 171.332 407.42 175.877C417.36 178.097 418.985 177.484 422.636 168.162L476.875 29.8474C478.352 26.1057 480.251 22.5332 481.644 18.7704C486.899 4.5648 504.712 -1.98839 515.285 0.527186C532.696 4.64934 540.294 15.3247 541.518 30.5872C541.961 35.9143 539.407 41.7065 537.402 46.9702C531.071 63.5645 524.444 80.0108 518.071 96.5628C517.232 99.2593 516.597 102.015 516.171 104.807L518.619 106.266ZM227.377 809.569C231.619 811.158 235.971 812.436 240.398 813.395C256.311 815.509 272.266 817.243 288.2 819.124C306.667 821.238 324.901 819.124 343.325 817.708C365.63 815.829 387.779 812.411 409.614 807.476C436.075 801.659 461.951 793.437 486.92 782.912C528.221 765.954 566.972 743.338 602.067 715.711C637.591 688.043 668.182 654.55 692.542 616.652C718.093 577.037 733.103 531.533 736.144 484.468C737.199 468.233 735.152 451.618 732.915 435.404C730.03 416.165 724.785 397.357 717.298 379.406C693.555 320.428 651.346 280.284 592.781 257.01C576.889 250.668 560.259 247.096 543.544 243.438C528.538 240.162 513.512 240.606 498.57 240.479C485.696 240.352 472.548 240.077 459.738 244.242C448.679 247.835 436.713 248.681 425.738 252.465C382.284 267.432 345.309 292.249 316.776 328.566C285.456 368.414 267.222 413.335 267.011 464.724C267.011 472.799 267.011 480.875 267.011 488.95C266.887 494.31 267.219 499.67 268.003 504.973C272.899 530.023 279.843 554.334 291.893 577.143C293.888 580.93 295.072 585.092 295.367 589.363C295.663 593.635 295.064 597.921 293.61 601.947C292.156 605.973 289.877 609.65 286.921 612.743C283.966 615.836 280.397 618.277 276.445 619.908C262.03 625.34 243.522 620.288 236.156 605.11C226.448 585.197 217.162 565.072 212.941 543.151C209.586 525.753 205.301 508.356 203.93 490.768C201.858 460.239 204.868 429.578 212.836 400.038C229.48 334.768 268.28 277.332 322.579 237.583C325.462 235.134 328.209 232.53 330.81 229.783C325.829 229.148 323.212 228.282 320.764 228.578C302.509 230.692 284.042 231.875 266.146 235.744C242.906 240.912 220.564 249.518 199.856 261.28C146.23 291.298 106.996 334.21 83.1484 391.16C75.8315 408.767 70.3846 427.097 66.8978 445.847C63.3793 463.233 61.8429 480.962 62.3182 498.695C63.1709 521.12 66.8294 543.349 73.2081 564.861C84.2288 602.147 103.356 636.525 129.216 665.528C155.077 694.53 187.028 717.436 222.776 732.601C227.503 734.427 231.753 737.308 235.202 741.026C238.65 744.744 241.207 749.201 242.678 754.057C245.674 763.464 242.804 771.878 239.385 780.334C235.565 789.593 231.767 798.809 227.356 809.569H227.377ZM531.599 178.921C533.989 179.731 536.428 180.388 538.901 180.887C564.481 183.619 589.601 189.659 613.632 198.856C635.392 206.776 655.98 217.614 674.835 231.072C679.382 234.509 684.195 237.577 689.228 240.246C691.807 241.51 694.731 241.882 697.544 241.303C714.417 237.241 730.762 231.233 746.253 223.398C775.472 208.948 801.451 188.695 822.609 163.87C828.941 156.556 828.392 154.802 820.499 149.961C790.987 131.897 757.819 120.666 723.418 117.089C696.151 114.151 668.419 114.468 641.406 120.556C620.455 125.017 600.187 132.239 581.131 142.033C565.563 149.846 550.994 159.513 537.74 170.825C535.429 173.313 533.372 176.025 531.599 178.921V178.921Z" fill="#F17E6A"/>
</svg>
